<svg width="431" height="59" viewBox="0 0 431 59" fill="none" xmlns="http://www.w3.org/2000/svg">
<g clip-path="url(#clip0_0_4962)">
<path d="M325.414 49.2912H349.708C347.971 45.7582 349.708 43.7967 352.719 41.967V49.2198H376.877C376.554 48.0219 376.27 46.9505 376.057 46.1428L379.98 42.0879V49.4505C384.318 49.4505 388.382 49.2802 392.419 49.5C395.73 49.6813 398.429 49.2087 400.199 45.967C400.92 44.6538 401.74 43.4231 400.325 42.4505C399.625 41.9615 398.096 42.0879 397.254 42.5329C395.615 43.3901 395.561 44.7637 397.063 45.9615C395.424 48.1043 394.408 48.0329 393.545 45.7198C392.682 43.4066 393.447 41.5604 395.157 40.0769C396.987 38.4945 400.483 38.5439 402.259 40.1977C403.898 41.7472 404.635 43.6428 403.45 45.8461C402.903 46.8736 402.264 47.8571 401.483 49.1428H419.708C420.637 46.2362 417.949 42 423.172 40.6978C423.172 43.9945 423.254 47.4121 423.084 50.8187C423.057 51.3022 421.839 52.1209 421.172 52.1154C414.07 52.0769 407.017 51.8791 399.937 51.7857C398.598 51.7857 397.254 52.1593 395.916 52.1593C356.25 52.1813 316.585 52.1813 276.923 52.1593H275.83L280.25 48.0439C280.796 48.489 281.342 49.3132 281.889 49.3242C286.325 49.4286 290.766 49.3846 295.727 49.3846C294.23 45.8407 295.487 43.6593 298.71 42.0494V49.1923H322.841C322.458 48.0934 322.13 47.1044 321.693 45.8187L325.452 42.3351L325.414 49.2912Z" fill="#B9A038"/>
<path d="M262.712 29.6814C262.712 36.8242 262.712 43.9671 262.712 51.077C262.712 56.2528 260.155 58.7693 255.009 58.7693C242.553 58.7693 230.101 58.7693 217.652 58.7693C212.599 58.7693 209.802 56.1154 209.785 51.077C209.73 36.8205 209.73 22.5605 209.785 8.29674C209.785 3.26927 212.992 0.0549799 217.98 0.0549799C230.159 3.47933e-05 242.338 3.47933e-05 254.518 0.0549799C260.199 0.0879469 262.712 2.80223 262.712 8.57146C262.716 15.6081 262.716 22.6447 262.712 29.6814ZM261.073 29.5549C261.073 22.2473 261.073 14.9359 261.073 7.62092C261.073 3.72532 259.15 1.70882 255.266 1.69233C242.635 1.65204 230.002 1.65204 217.368 1.69233C216.576 1.67155 215.788 1.81416 215.053 2.11133C214.318 2.4085 213.651 2.85396 213.094 3.42023C212.536 3.98651 212.1 4.66157 211.812 5.40387C211.524 6.14618 211.39 6.93997 211.419 7.73629C211.397 22.3553 211.397 36.978 211.419 51.6044C211.395 52.3798 211.526 53.1522 211.803 53.8762C212.08 54.6002 212.498 55.2614 213.032 55.8211C213.566 56.3808 214.206 56.8278 214.914 57.1359C215.622 57.444 216.384 57.607 217.155 57.6154C229.877 57.7033 242.599 57.7033 255.321 57.6154C259.057 57.5825 261.068 55.2143 261.073 51.4835C261.077 44.1795 261.075 36.87 261.068 29.5549H261.073Z" fill="#B9A038"/>
<path d="M20.8256 51.7857C17.3729 53.2857 1.93396 52.967 0 51.3681C1.06636 50.8903 2.16108 50.4793 3.2779 50.1374C6.00948 49.489 7.23324 47.6868 7.24416 45.0164C7.27694 34.7692 7.29879 24.5219 7.24416 14.2472C7.24416 11.0329 6.05319 9.95604 2.22351 8.79121C1.53515 8.58791 0.961514 8.01097 0.338714 7.60437C1.06531 7.26371 1.78645 6.64282 2.52398 6.63184C7.70306 6.54392 12.904 6.55491 18.0721 6.63184C18.7824 6.63184 19.4816 7.12634 20.1809 7.39008C19.5527 7.8736 18.9954 8.58243 18.2852 8.80221C14.2097 10.055 13.3083 11.1263 13.2919 15.423C13.2627 24.9469 13.2627 34.4615 13.2919 43.967C13.2919 47.9011 14.4992 49.3791 18.165 50.478C19.0809 50.8515 19.9699 51.2884 20.8256 51.7857Z" fill="#B9A038"/>
<path d="M23.4315 20.8296C27.802 19.445 29.7141 20.0934 31.8065 23.5769C35.7127 30.1044 39.6462 36.6154 44.0112 43.8736C44.1915 42.3242 44.3445 41.5879 44.3499 40.8516C44.3499 36.5549 44.3827 32.2528 44.3499 27.9561C44.3499 25.2088 45.2677 22.0495 40.5257 21.3022L41.378 20.6263H49.9661C45.5955 23.0384 47.2017 27.1428 47.1198 30.6099C46.9668 37.1044 47.0815 43.5989 47.0706 50.0989C47.1124 51.1633 46.8508 52.2175 46.3167 53.1374C45.4153 52.1319 44.3335 51.2362 43.6343 50.1044C39.3894 43.2198 35.2428 36.2747 31.0417 29.3571C30.4876 28.5929 29.8931 27.8593 29.2607 27.1593C29.1787 28.8626 29.0859 29.9066 29.0804 30.923C29.0804 35.3186 29.0804 39.7142 29.0804 44.1098C29.0804 48.5055 29.0804 48.445 32.9046 52.434H22.8906C23.3605 51.7692 23.497 51.3351 23.7483 51.2582C26.4799 50.456 26.9006 48.3351 26.8897 45.9011C26.8897 40.4066 26.8897 34.9121 26.8897 29.4175C26.8951 24.1153 26.8951 24.1153 23.4315 20.8296Z" fill="#B9A038"/>
<path d="M97.4023 21.1319C102.598 19.3846 104.707 20.0769 106.919 23.7912C110.448 29.7253 113.945 35.6813 117.474 41.6099C117.993 42.4831 118.768 43.1738 119.692 43.5879V38.8517C119.692 34.9231 119.692 30.9946 119.692 27.066C119.737 25.7737 119.44 24.4927 118.831 23.3536C118.223 22.2146 117.324 21.2583 116.228 20.5824H125.532C124.986 21.1649 124.773 21.6374 124.44 21.7638C122.096 22.5989 121.839 24.4121 121.861 26.588C121.932 34.3517 121.861 42.1209 121.861 49.8901V52.5879L121.26 53.0605C120.517 52.3352 119.621 51.7253 119.075 50.8626C114.666 43.7637 110.334 36.6209 105.963 29.5055C105.564 28.8517 105.073 28.2527 104.188 27.0165C104.018 28.5 103.86 29.2473 103.86 29.9945C103.832 34.566 103.86 39.1374 103.832 43.7033C103.8 47 103.368 50.4286 107.744 52.0055C104.412 52.9286 101.314 52.6978 98.1945 52.5989C98.1945 52.0879 98.1399 51.7912 98.1945 51.7638C101.675 50.2308 101.789 47.2748 101.691 44.0275C101.538 39.0055 101.691 33.9725 101.631 28.9506C101.614 25.8297 102.855 22.0605 97.4023 21.1319Z" fill="#B9A038"/>
<path d="M190.424 40.033C188.091 36.055 184.474 37.5769 180.874 37.3956C180.874 41.0275 180.814 44.467 180.923 47.8956C181.055 48.599 181.445 49.2268 182.016 49.6539C184.66 51.8242 190.424 50.445 191.964 47.3516C192.366 46.7699 192.81 46.219 193.292 45.7033C193.292 48.0824 193.439 49.6978 193.21 51.2582C193.073 51.6063 192.851 51.914 192.564 52.1531C192.278 52.3922 191.936 52.5549 191.571 52.6263C185.851 52.6868 180.137 52.6264 174.417 52.5385C174.286 52.5385 174.16 52.3077 174.029 52.1868C174.029 52.0934 174.002 51.9341 174.029 51.9176C178.164 50.044 177.574 46.3461 177.547 42.8297C177.509 37.989 177.432 33.1429 177.574 28.3022C177.662 25.1868 177.411 22.4176 173.564 21.1154C174.253 20.6923 174.515 20.3901 174.777 20.3901C179.956 20.3462 185.157 20.2802 190.315 20.3516C192.451 20.3846 192.844 21.8681 191.74 25.6703C189.271 20.478 184.873 23.1923 181.016 22.5V35.0714C184.294 34.6538 188.118 37.011 190.407 32.3242L190.424 40.033Z" fill="#B9A038"/>
<path d="M62.5037 22.5385V35.0989C65.7816 34.6539 69.3982 36.9396 71.9222 32.7308V40.2967C69.6878 36.2253 66.1094 37.3956 62.8424 37.489C61.2035 44.0824 62.2961 48.9341 66.4317 52.1868C62.7059 53.0824 59.3897 52.8187 55.6638 52.0934C60.1054 50.2198 59.0619 46.5659 59.0893 43.3022C59.133 38.1813 59.0893 33.0549 59.0893 27.9176C59.0893 23.4341 59.0892 23.434 55.4453 20.6264C56.2875 20.4748 57.1374 20.3703 57.9911 20.3132C62.0831 20.3132 66.1859 20.3132 70.2723 20.3132C73.8507 20.3132 73.8507 20.3132 73.8343 23.9835V25.7583C72.2227 24.6594 70.7531 23.1374 68.9885 22.6429C67.0764 22.1209 64.8911 22.5385 62.5037 22.5385Z" fill="#B9A038"/>
<path d="M169.238 26.3627C166.725 22.1649 166.447 22.033 160.765 22.8242C160.721 23.7308 160.628 24.7033 160.628 25.6704C160.628 31.7912 160.628 37.9176 160.628 44.044C160.628 47.0989 159.918 50.3956 164.321 51.7363L163.682 52.3627H153.756L153.116 51.7308C157.536 50.4121 156.815 47.1044 156.81 44.0385C156.81 37.0165 156.81 29.9945 156.81 23.0495C152.062 21.7912 151.237 22.1429 148.68 26.3462C146.899 22.3956 148.101 20.3022 152.177 20.3022C156.81 20.3022 161.464 20.4506 166.081 20.2473C168.779 20.1264 169.735 21.1045 169.386 23.6979C169.266 24.599 169.293 25.4836 169.238 26.3627Z" fill="#B9A038"/>
<path d="M80.5767 20.6099H90.9949C87.0287 22.489 88.0667 25.956 88.0448 29C88.0175 34.1208 88.0448 39.2472 88.0448 44.3846C88.0448 49.2362 88.0448 49.2363 91.5467 52.3462H81.1667L80.5166 51.7582C84.8871 50.4121 84.2425 47.1429 84.2206 44.0659C84.1878 38.5714 84.2206 33.0769 84.2206 27.5824C84.2097 23.3516 84.2097 23.3517 80.5767 20.6099Z" fill="#B9A038"/>
<path d="M132.055 20.6099H142.67C141.731 21.3242 141.075 21.6318 140.72 22.1428C139.993 23.1758 138.917 24.3406 138.89 25.4395C138.726 32.6483 138.611 39.8681 138.944 47.0604C139.026 48.8406 140.829 50.544 141.905 52.3846H132.022C137.087 49.9176 135.366 45.3572 135.492 41.4835C135.623 37.3846 135.492 33.2747 135.535 29.1648C135.595 25.8462 136.049 22.4396 132.055 20.6099Z" fill="#B9A038"/>
<path d="M426.465 20.2638L431 25.3846C430.662 26.8578 430.437 28.3549 430.328 29.8626C430.246 36.5165 430.3 43.1703 430.284 49.8297C430.284 51.1538 430.628 52.6923 428.454 52.7418C426.279 52.7912 426.46 51.4011 426.46 49.9945C426.471 40.3242 426.465 30.6649 426.465 20.2638Z" fill="#B9A038"/>
<path d="M320.393 54.5659L322.687 56.5494L324.965 54.7802L327.047 56.7143L325.129 58.9615L322.791 57.1978L320.764 58.7362C318.153 57.1154 318.104 56.7363 320.393 54.5659Z" fill="#B9A038"/>
<path d="M372.353 56.6374L374.494 54.7692L376.767 56.5L379.263 54.5989L381.345 57.0274L379.05 58.9835L376.81 57.1319L374.527 58.9945L372.353 56.6374Z" fill="#B9A038"/>
<path d="M290.799 36.3956H286.429L286.363 37.0879C286.019 36.8132 285.653 36.5385 285.33 36.2583C285.008 35.978 284.735 35.6044 284.205 35.0055L286.134 33.0714L286.379 33.9341H290.75C292.848 34.3682 293.252 35.555 290.799 36.3956Z" fill="#B9A038"/>
<path d="M420.674 34.456C419.713 35.3626 419.008 36.0165 418.145 36.8242C417.238 36 416.533 35.3517 415.577 34.4725L417.926 31.9341L420.674 34.456Z" fill="#B9A038"/>
<path d="M349.675 36.4945C346.829 34.0494 346.829 34.011 349.38 32.0989L351.604 34.1319L349.675 36.4945Z" fill="#B9A038"/>
<path d="M397.117 33.7308L399.117 31.6264L401.067 33.4561C399.548 36.1044 399.313 36.1429 397.117 33.7308Z" fill="#B9A038"/>
<path d="M246.126 52.9506H226.382L226.131 52.1703C226.978 51.746 227.852 51.3789 228.748 51.0714C231.971 50.1648 233.222 48.5934 233.228 45.1868C233.228 35.2198 233.228 25.2527 233.228 15.2857C233.228 11.4396 232.364 10.478 228.633 9.28569C227.759 9.00547 227.087 8.07141 226.317 7.43405C227.196 7.16482 228.076 6.67036 228.955 6.65937C233.956 6.58245 238.957 6.58245 243.957 6.65937C244.717 6.65937 245.465 7.26923 246.224 7.59341C245.602 8.14286 245.061 8.91758 244.34 9.17033C240.313 10.5494 239.789 11.1868 239.789 15.3626C239.789 25.3297 239.789 35.2967 239.789 45.2638C239.789 49.2308 240.614 50.2088 244.367 51.1154C245.077 51.2802 245.694 51.8242 246.355 52.2143L246.126 52.9506Z" fill="#B9A038"/>
</g>
<defs>
<clipPath id="clip0_0_4962">
<rect width="431" height="59" fill="white"/>
</clipPath>
</defs>
</svg>
